<svg id="OBJECTS" xmlns="http://www.w3.org/2000/svg" viewBox="0 0 500 307.15"><defs><style>.cls-1{fill:#bc9bdd;}.cls-2{fill:#6a2caa;}.cls-3{fill:#912421;}.cls-4{fill:#fff;}.cls-5{fill:#912522;}.cls-6,.cls-7{fill:#fb8181;}.cls-6{fill-rule:evenodd;}.cls-8{fill:#912220;}.cls-9{fill:#ffa1a2;}</style></defs><path class="cls-1" d="M329.25,291.41a6.85,6.85,0,0,0-4.14-4.66c-2.05-.66-4.66.34-5.3,2.4-1.89-1.57-4.79-.32-6.31,1.62-2.46,3.14-.56,8.27-.15,8.61a3.22,3.22,0,0,0,1.64.29l18.4-.1a22.54,22.54,0,0,0,4.93-.87c3.13-1.25,5.27-6.64,3.25-9.34-1.38-1.85-4.09-2.24-6.28-1.54a17.59,17.59,0,0,0-6,3.59"/><path class="cls-2" d="M314.73,300.29a3,3,0,0,1-1.76-.44c-.73-.59-2.56-6.13,0-9.46a6.61,6.61,0,0,1,4.3-2.53,3.77,3.77,0,0,1,2.22.39,4.31,4.31,0,0,1,1.81-1.72,5.28,5.28,0,0,1,3.95-.36,7.15,7.15,0,0,1,4.22,4.21,17.88,17.88,0,0,1,5.58-3.14c2.2-.7,5.31-.45,7,1.75a5.92,5.92,0,0,1,.59,5.15,7.76,7.76,0,0,1-4.1,5.13,23.21,23.21,0,0,1-5.12.91l-18.43.1Zm3.06-11.24h-.35a5.52,5.52,0,0,0-3.47,2.08c-2.15,2.76-.54,7.35-.19,7.81a3.38,3.38,0,0,0,1.18.12l18.42-.11a22.32,22.32,0,0,0,4.71-.82,6.57,6.57,0,0,0,3.39-4.33,4.7,4.7,0,0,0-.4-4.09c-1.28-1.73-3.81-1.89-5.61-1.32a16.91,16.91,0,0,0-5.82,3.47.62.62,0,0,1-.57.13.6.6,0,0,1-.41-.41,6.19,6.19,0,0,0-3.74-4.26,4,4,0,0,0-3,.28,3,3,0,0,0-1.52,1.72.62.62,0,0,1-.41.41.63.63,0,0,1-.56-.12A2.49,2.49,0,0,0,317.79,289.05Z"/><path class="cls-2" d="M309.9,290.72a5.73,5.73,0,0,0-.62,3.28c.06.58,1,.58.91,0a4.82,4.82,0,0,1,.5-2.82c.27-.53-.52-1-.79-.46Z"/><path class="cls-2" d="M307.24,291.45a6.38,6.38,0,0,0-.07,3.1c.12.57,1,.33.87-.24a5.4,5.4,0,0,1,.08-2.62.46.46,0,0,0-.88-.24Z"/><path class="cls-2" d="M312.35,289.6a.46.46,0,0,0,0-.91.46.46,0,0,0,0,.91Z"/><path class="cls-2" d="M314.94,294v.81a.46.46,0,0,0,.91,0V294a.46.46,0,0,0-.91,0Z"/><path class="cls-2" d="M330.32,295.42v.4a.46.46,0,0,0,.91,0v-.4a.46.46,0,0,0-.91,0Z"/><path class="cls-2" d="M328.63,294.32l.21.2a.45.45,0,0,0,.64-.64l-.2-.2a.46.46,0,0,0-.65.64Z"/><path class="cls-3" d="M69.76,274.24H38.92a1.22,1.22,0,0,1,0-2.43H69.76a1.22,1.22,0,1,1,0,2.43Z"/><path class="cls-4" d="M341.31,167.29h-.88a1.32,1.32,0,1,0-2.64,0h-.88a2.2,2.2,0,0,1,4.4,0Z"/><path class="cls-4" d="M344.46,116h-.88a1.32,1.32,0,1,0-2.64,0h-.88a2.2,2.2,0,0,1,4.4,0Z"/><path class="cls-5" d="M234.82,294.22H192.91l.71-1.69c2.75-6.52,3-12.1,2.61-18.48l-.08-1.29,35.34-.11v1.21a82.4,82.4,0,0,0,2.82,18.77Zm-38.29-2.43h35a92.08,92.08,0,0,1-2.45-16.7l-30.37.09A39.44,39.44,0,0,1,196.53,291.79Z"/><path class="cls-5" d="M180.86,275.07c-31.82,0-57.6-.18-58.73-.58-2.73-1-6.29-4.75-6.33-7.43-.11-5.79-.36-13.69-.64-22.83-.88-27.57-2.07-65.33-.52-86.22a7.25,7.25,0,0,1,7.18-6.75h.12l183.46.27a7.24,7.24,0,0,1,7.09,7.13c.14,6.1.33,12.34.53,18.66.84,26.47,1.71,53.84-1.22,79.72-.11,1-.16,2.15-.22,3.32-.25,5.43-.55,12.19-7.55,13.57C300.61,274.6,232.71,275.07,180.86,275.07Zm-59-121.86a5.28,5.28,0,0,0-5.25,4.94c-1.54,20.79-.35,58.49.52,86,.29,9.16.54,17.06.64,22.87,0,1.69,2.85,4.84,5,5.62,3.91.8,176.39.21,180.87-.64,5.5-1.08,5.74-6.5,6-11.74.06-1.21.11-2.38.23-3.45,2.92-25.74,2.05-53,1.21-79.44-.2-6.32-.4-12.56-.54-18.67a5.29,5.29,0,0,0-5.15-5.23l-183.45-.27Z"/><path class="cls-6" d="M300.27,157.85l-172.85-.23a5.65,5.65,0,0,0-6,4.87c-1.94,23.14.7,71.41,1.09,90.83,0,1.9,3.13,4.74,5.36,5.44,2.62.83,166.88.2,170.89-.5,7.21-1.26,6-8.64,6.59-13.37,3.42-26.72,1.32-55.76.64-81.9A5.59,5.59,0,0,0,300.27,157.85Z"/><path class="cls-5" d="M249.82,300.87H177.9a4.47,4.47,0,0,1,0-8.94h71.92a4.47,4.47,0,0,1,0,8.94Zm-71.92-7a2.51,2.51,0,0,0,0,5h71.92a2.51,2.51,0,0,0,0-5Z"/><path class="cls-5" d="M127.81,268.26c3.23,0,3.24-5,0-5s-3.23,5,0,5Z"/><path class="cls-5" d="M137.93,268.26c3.23,0,3.24-5,0-5s-3.24,5,0,5Z"/><path class="cls-5" d="M148.05,268.26c3.23,0,3.24-5,0-5s-3.24,5,0,5Z"/><path class="cls-5" d="M213.86,156.35a1.18,1.18,0,0,0,0-2.35,1.18,1.18,0,0,0,0,2.35Z"/><polygon class="cls-7" points="416.69 296.1 391.91 296.1 401.44 264.79 407.16 264.79 416.69 296.1"/><rect class="cls-7" x="389.86" y="296.1" width="28.88" height="3.58"/><polygon class="cls-5" points="394.29 288.27 391.91 296.1 416.69 296.1 414.31 288.27 394.29 288.27"/><polygon class="cls-5" points="396.68 280.44 411.93 280.44 409.54 272.62 399.06 272.62 396.68 280.44"/><path class="cls-7" d="M426.83,299.47h5.5V278.18h28.22v21.29h5.5V278.18h5.83v-17h-4.65v-1.57h-8v1.57h-25v-1.57h-8v1.57h-5.1v17h5.73ZM470.1,263V263l-3.39,13.38h-6L464.07,263ZM454.33,276.4h-6.05l3.4-13.45h6.05Zm-12.39,0h-6.05L439.3,263h6.05Zm-15-13.45h6l-3.41,13.45H423.5Z"/><path class="cls-7" d="M156.35,91.32,158,89.68a.86.86,0,0,0,0-1.21L156.56,87a1.2,1.2,0,0,1-.19-1.35l1.17-2.84a1.22,1.22,0,0,1,1.1-.82h2a.86.86,0,0,0,.85-.85V78.83a.85.85,0,0,0-.85-.85h-2a1.22,1.22,0,0,1-1.1-.82l-1.17-2.84a1.22,1.22,0,0,1,.19-1.36L158,71.53a.86.86,0,0,0,0-1.21l-1.65-1.65a.86.86,0,0,0-1.21,0l-1.43,1.43a1.22,1.22,0,0,1-1.36.2l-2.84-1.17a1.22,1.22,0,0,1-.82-1.1V66a.86.86,0,0,0-.85-.86h-2.33a.86.86,0,0,0-.86.86v2a1.22,1.22,0,0,1-.82,1.1L141,70.3a1.2,1.2,0,0,1-1.35-.2l-1.44-1.43a.86.86,0,0,0-1.21,0l-1.65,1.65a.86.86,0,0,0,0,1.21L136.78,73a1.22,1.22,0,0,1,.19,1.36l-1.17,2.84a1.22,1.22,0,0,1-1.1.82h-2a.85.85,0,0,0-.85.85v2.34a.86.86,0,0,0,.85.85h2a1.22,1.22,0,0,1,1.1.82L137,85.68a1.2,1.2,0,0,1-.19,1.35l-1.44,1.44a.86.86,0,0,0,0,1.21L137,91.32a.85.85,0,0,0,1.21,0l1.44-1.43A1.2,1.2,0,0,1,141,89.7l2.84,1.17a1.21,1.21,0,0,1,.82,1.09v2a.85.85,0,0,0,.86.85h2.33a.85.85,0,0,0,.85-.85V92a1.21,1.21,0,0,1,.82-1.09l2.84-1.17a1.22,1.22,0,0,1,1.36.19l1.43,1.43A.85.85,0,0,0,156.35,91.32Zm-9.68-4.51A6.82,6.82,0,1,1,153.49,80,6.82,6.82,0,0,1,146.67,86.81Z"/><path class="cls-7" d="M172.11,97.77l-.41-1.39A.54.54,0,0,0,171,96l-1.2.36a.75.75,0,0,1-.8-.29l-1.21-1.47a.76.76,0,0,1-.12-.84l.59-1.11a.54.54,0,0,0-.21-.72l-1.28-.68a.52.52,0,0,0-.71.22l-.6,1.11a.77.77,0,0,1-.77.36l-1.89-.19a.75.75,0,0,1-.68-.51l-.37-1.2a.52.52,0,0,0-.66-.35l-1.38.41a.54.54,0,0,0-.36.66l.37,1.21a.74.74,0,0,1-.29.79L158,95a.77.77,0,0,1-.84.12l-1.11-.6a.54.54,0,0,0-.72.22L154.64,96a.54.54,0,0,0,.21.72l1.11.6a.74.74,0,0,1,.36.76l-.19,1.9a.74.74,0,0,1-.5.68l-1.2.37a.53.53,0,0,0-.36.66l.42,1.38a.52.52,0,0,0,.66.35l1.21-.36a.76.76,0,0,1,.79.29l1.21,1.47a.77.77,0,0,1,.13.84l-.6,1.11a.54.54,0,0,0,.22.72l1.27.68a.53.53,0,0,0,.72-.22l.6-1.11a.75.75,0,0,1,.76-.36l1.89.2a.75.75,0,0,1,.69.5l.36,1.2a.54.54,0,0,0,.66.36l1.39-.42a.53.53,0,0,0,.35-.66l-.36-1.2a.73.73,0,0,1,.29-.8l1.47-1.21a.76.76,0,0,1,.84-.13l1.11.6a.53.53,0,0,0,.72-.22l.68-1.27a.53.53,0,0,0-.22-.72l-1.11-.6a.74.74,0,0,1-.36-.76l.19-1.9a.75.75,0,0,1,.51-.68l1.2-.36A.53.53,0,0,0,172.11,97.77Zm-5.29,4A4.23,4.23,0,1,1,165.09,96,4.23,4.23,0,0,1,166.82,101.73Z"/><path class="cls-3" d="M241.08,124.45H202.9a1.22,1.22,0,0,1,0-2.43h38.18a1.22,1.22,0,1,1,0,2.43Z"/><path class="cls-3" d="M163.35,141.79H101.67a1.22,1.22,0,0,1,0-2.43h61.68a1.22,1.22,0,0,1,0,2.43Z"/><path class="cls-3" d="M459.07,174.63H397.39a1.22,1.22,0,0,1,0-2.43h61.68a1.22,1.22,0,1,1,0,2.43Z"/><path class="cls-3" d="M483.32,302.08H16.68a1.22,1.22,0,0,1,0-2.43H483.32a1.22,1.22,0,0,1,0,2.43Z"/><path class="cls-7" d="M312.15,109.19A9.8,9.8,0,0,0,303.7,124l.16.27-9.92,9.92a1.72,1.72,0,0,0-.49,1.12,2.18,2.18,0,0,0,.75,1.51,2.37,2.37,0,0,0,1.66.8,2.09,2.09,0,0,0,1.17-.39l9.89-9.9.27.16a9.8,9.8,0,1,0,5-18.25Zm0,16.68a6.89,6.89,0,1,1,0-13.77h0a6.89,6.89,0,1,1,0,13.77Z"/><path class="cls-7" d="M308.52,120.42h7.09V118.6h-7.09Z"/><path class="cls-3" d="M130.24,299.83a1.21,1.21,0,0,1-1.22-1.21V205.06a1.22,1.22,0,0,1,2.43,0v93.56A1.21,1.21,0,0,1,130.24,299.83Z"/><path class="cls-3" d="M152,299.83a1.22,1.22,0,0,1-1.22-1.21V205.06a1.22,1.22,0,0,1,2.43,0v93.56A1.21,1.21,0,0,1,152,299.83Z"/><path class="cls-3" d="M152,212.67H130.24a1.22,1.22,0,1,1,0-2.43H152a1.22,1.22,0,0,1,0,2.43Z"/><path class="cls-3" d="M152,223.36H130.24a1.22,1.22,0,1,1,0-2.43H152a1.22,1.22,0,0,1,0,2.43Z"/><path class="cls-3" d="M152,234.05H130.24a1.22,1.22,0,1,1,0-2.43H152a1.22,1.22,0,0,1,0,2.43Z"/><path class="cls-3" d="M152,244.73H130.24a1.21,1.21,0,1,1,0-2.42H152a1.21,1.21,0,0,1,0,2.42Z"/><path class="cls-3" d="M152,255.42H130.24a1.22,1.22,0,1,1,0-2.43H152a1.22,1.22,0,0,1,0,2.43Z"/><path class="cls-3" d="M152,266.11H130.24a1.22,1.22,0,1,1,0-2.43H152a1.22,1.22,0,0,1,0,2.43Z"/><path class="cls-3" d="M152,276.8H130.24a1.22,1.22,0,1,1,0-2.43H152a1.22,1.22,0,0,1,0,2.43Z"/><path class="cls-3" d="M152,287.49H130.24a1.22,1.22,0,1,1,0-2.43H152a1.22,1.22,0,0,1,0,2.43Z"/><path class="cls-3" d="M100.63,209.6a1.22,1.22,0,0,1-1.22-1.21v-4.73a1.22,1.22,0,1,1,2.43,0v4.73A1.21,1.21,0,0,1,100.63,209.6Z"/><path class="cls-3" d="M103,207.24H98.26a1.22,1.22,0,0,1,0-2.43H103a1.22,1.22,0,1,1,0,2.43Z"/><path class="cls-3" d="M209.87,40.43a1.22,1.22,0,0,1-1.22-1.22V34.48a1.22,1.22,0,0,1,2.43,0v4.73A1.22,1.22,0,0,1,209.87,40.43Z"/><path class="cls-3" d="M212.23,38.06H207.5a1.22,1.22,0,0,1,0-2.43h4.73a1.22,1.22,0,1,1,0,2.43Z"/><path class="cls-3" d="M248.16,285.3a1.26,1.26,0,0,1-.33-.05L243.28,284a1.22,1.22,0,1,1,.67-2.34l4.54,1.3a1.21,1.21,0,0,1-.33,2.38Z"/><path class="cls-3" d="M245.24,286.92a1.32,1.32,0,0,1-.34,0,1.21,1.21,0,0,1-.83-1.5l1.3-4.55a1.21,1.21,0,1,1,2.33.66L246.4,286A1.19,1.19,0,0,1,245.24,286.92Z"/><path class="cls-3" d="M224.27,142.44a1.37,1.37,0,0,1-.34,0l-4.54-1.3a1.22,1.22,0,1,1,.66-2.34l4.55,1.3a1.21,1.21,0,0,1-.33,2.38Z"/><path class="cls-3" d="M221.34,144.07a1.26,1.26,0,0,1-.33,0,1.21,1.21,0,0,1-.83-1.5l1.29-4.55a1.22,1.22,0,0,1,2.34.67l-1.3,4.54A1.22,1.22,0,0,1,221.34,144.07Z"/><circle class="cls-7" cx="221.08" cy="97.68" r="16.87" transform="translate(-4.31 184.94) rotate(-45)"/><circle class="cls-4" cx="221.08" cy="97.68" r="12.64"/><path class="cls-3" d="M221.08,110.81a13.13,13.13,0,1,1,13.13-13.13A13.14,13.14,0,0,1,221.08,110.81Zm0-25.29a12.16,12.16,0,1,0,12.15,12.16A12.17,12.17,0,0,0,221.08,85.52Z"/><path class="cls-3" d="M221.08,98.16a.48.48,0,0,1-.49-.48V91.24a.49.49,0,0,1,1,0v6.44A.48.48,0,0,1,221.08,98.16Z"/><path class="cls-3" d="M228.62,98.16h-7.54a.48.48,0,0,1-.49-.48.49.49,0,0,1,.49-.49h7.54a.49.49,0,0,1,.49.49A.48.48,0,0,1,228.62,98.16Z"/><path class="cls-3" d="M221.58,86.46a.5.5,0,0,1-.5.5.5.5,0,0,1-.5-.5.51.51,0,0,1,.5-.5A.5.5,0,0,1,221.58,86.46Z"/><circle class="cls-3" cx="229.01" cy="89.75" r="0.5"/><path class="cls-3" d="M232.3,98.18a.5.5,0,0,1-.5-.5.5.5,0,1,1,.5.5Z"/><circle class="cls-3" cx="229.01" cy="105.61" r="0.5"/><path class="cls-3" d="M220.58,108.89a.5.5,0,0,1,.5-.5.5.5,0,0,1,0,1A.5.5,0,0,1,220.58,108.89Z"/><path class="cls-3" d="M212.8,105.25a.5.5,0,1,1,0,.71A.5.5,0,0,1,212.8,105.25Z"/><circle class="cls-3" cx="209.87" cy="97.68" r="0.5"/><path class="cls-3" d="M213.51,89.39a.5.5,0,1,1-.71.71.5.5,0,0,1,0-.71A.51.51,0,0,1,213.51,89.39Z"/><path class="cls-3" d="M245.77,91.23h-7.09a.49.49,0,0,1,0-1h7.09a.49.49,0,1,1,0,1Z"/><path class="cls-3" d="M245.77,105.1h-7.09a.49.49,0,1,1,0-1h7.09a.49.49,0,1,1,0,1Z"/><path class="cls-3" d="M254.57,98.17H241.34a.49.49,0,1,1,0-1h13.23a.49.49,0,1,1,0,1Z"/><rect class="cls-4" x="269.84" y="280.44" width="7.83" height="7.83"/><path class="cls-5" d="M278.27,288.88h-9v-9h9Zm-7.82-1.22h6.61v-6.61h-6.61Z"/><path class="cls-3" d="M287.57,282.16h-7.08a.49.49,0,0,1-.49-.49.48.48,0,0,1,.49-.48h7.08a.48.48,0,0,1,.49.48A.49.49,0,0,1,287.57,282.16Z"/><path class="cls-3" d="M290.23,287.53h-9.57c-.37,0-.66-.22-.66-.49s.29-.49.66-.49h9.57c.37,0,.67.22.67.49S290.6,287.53,290.23,287.53Z"/><path class="cls-3" d="M293.72,284.69H280.49a.48.48,0,0,1-.49-.48.49.49,0,0,1,.49-.49h13.23a.49.49,0,0,1,.49.49A.48.48,0,0,1,293.72,284.69Z"/><rect class="cls-4" x="97.99" y="165.59" width="7.83" height="7.83" transform="translate(203.8 339.01) rotate(180)"/><path class="cls-5" d="M106.42,174h-9v-9h9Zm-7.83-1.22h6.61V166.2H98.59Z"/><path class="cls-3" d="M88.08,167.31h7.09a.48.48,0,0,0,.48-.49.47.47,0,0,0-.48-.48H88.08a.48.48,0,0,0-.49.48A.49.49,0,0,0,88.08,167.31Z"/><path class="cls-3" d="M85.42,172.68H95c.37,0,.66-.22.66-.49s-.29-.49-.66-.49H85.42c-.37,0-.66.22-.66.49S85.05,172.68,85.42,172.68Z"/><path class="cls-3" d="M81.93,169.84H95.17a.47.47,0,0,0,.48-.48.48.48,0,0,0-.48-.49H81.93a.49.49,0,0,0-.49.49A.48.48,0,0,0,81.93,169.84Z"/><rect class="cls-8" x="336.68" y="195" width="2.43" height="104.47"/><rect class="cls-7" x="330.42" y="183.58" width="14.95" height="24.07" rx="6.15"/><path class="cls-8" d="M347.68,200.65l2.56.41c.58.1.82-.78.25-.87l-2.57-.42c-.57-.09-.82.79-.24.88Z"/><path class="cls-8" d="M347.59,195.08a7.53,7.53,0,0,1,2-.06c.59,0,.58-.86,0-.92a8.09,8.09,0,0,0-2.25.11c-.58.1-.33,1,.24.87Z"/><path class="cls-8" d="M347.31,190l2-.78c.54-.21.3-1.09-.24-.87l-2,.78c-.54.21-.3,1.09.24.87Z"/><path class="cls-8" d="M325,201.5a10.18,10.18,0,0,0,2-.47c.55-.19.32-1.07-.24-.88a10.1,10.1,0,0,1-2,.47c-.57.08-.33,1,.25.88Z"/><path class="cls-8" d="M323.79,195a10.26,10.26,0,0,1,2.47.38.46.46,0,0,0,.25-.88,11.4,11.4,0,0,0-2.72-.41.46.46,0,0,0,0,.91Z"/><path class="cls-8" d="M324.59,187.53l2,.63c.56.18.8-.7.24-.88l-2-.63c-.56-.18-.8.7-.24.88Z"/><polygon class="cls-3" points="332.23 300.89 333.85 286.92 341.74 286.92 343.56 300.69 332.23 300.89"/><path class="cls-1" d="M109.29,234c-.36-2.22-1.93-7.95-5.39-6.14-5.6,2.94,1.16,14.08-5.59,16C98,239.5,97,236.44,95,236.62c-4.14.38-3,10-3.11,12.17s-.17,4.36-.27,6.6c-4.87.87-3.9-11.82-6.86-13.58-4.6-2.73-5.58,3.35-5.46,6.16.22,4.79,1.51,10.51,6,13a12.25,12.25,0,0,0,6.12,1.61,64.2,64.2,0,0,0,.77,11.25s.08,0,.08,0h0L95,274v.05a.93.93,0,0,0,1.86,0c0-2.31,1.45-13.64,1.62-23.24A9.83,9.83,0,0,0,105,249C109.6,245.58,110.15,239.31,109.29,234Z"/><path class="cls-2" d="M95.9,275.49a1.56,1.56,0,0,1-.78-.22,1.28,1.28,0,0,1-.59-.76l-2-.11-.73,0-.11-.46a62.23,62.23,0,0,1-.79-10.8,13.53,13.53,0,0,1-5.86-1.7c-4.79-2.71-6-8.82-6.25-13.47-.09-1.87.31-5.74,2.4-7,1.06-.63,2.35-.51,3.83.37s2,3.45,2.61,6.47c.85,4.08,1.62,7,3.5,7.07l0-1c.08-1.74.16-3.45.21-5.14,0-.33,0-.84,0-1.46-.13-3.79-.38-10.84,3.6-11.2a2.16,2.16,0,0,1,1.66.53c1.11.94,1.82,3.09,2.16,6.59,2.52-1.12,2.39-4,2.24-7.37s-.31-6.86,2.66-8.42a2.89,2.89,0,0,1,2.73-.12c2.48,1.24,3.32,6.09,3.41,6.63h0c.66,4.05.94,11.44-4.54,15.46a10.82,10.82,0,0,1-6.28,2c-.14,6.27-.78,13.17-1.21,17.79-.22,2.31-.39,4.13-.4,4.89a1.38,1.38,0,0,1-.71,1.21A1.54,1.54,0,0,1,95.9,275.49Zm-3.28-2.12,2.9.16v.5c0,.24.08.32.14.36a.57.57,0,0,0,.51,0,.36.36,0,0,0,.18-.33c0-.79.17-2.54.4-5,.44-4.74,1.1-11.89,1.22-18.27v-.59l.58.09a9.47,9.47,0,0,0,6.1-1.74c5-3.7,4.75-10.65,4.13-14.46h0c-.27-1.67-1.21-5.05-2.85-5.87a1.86,1.86,0,0,0-1.79.11c-2.38,1.25-2.25,4.26-2.11,7.46.16,3.5.34,7.48-3.58,8.62l-.6.18-.06-.63c-.36-4.43-1.2-6-1.85-6.56a1.17,1.17,0,0,0-.9-.29c-3,.27-2.78,6.93-2.67,10.13,0,.66,0,1.19,0,1.53-.05,1.69-.13,3.42-.21,5.16l-.08,1.86-.41.08c-3.33.59-4.27-3.89-5.09-7.85-.54-2.55-1.09-5.18-2.13-5.8s-2.06-.79-2.77-.36c-1.54.93-2,4.21-1.9,6.06.2,4.39,1.35,10.14,5.73,12.62a11.7,11.7,0,0,0,5.83,1.54l.56,0v.56A64.25,64.25,0,0,0,92.62,273.37Z"/><path class="cls-5" d="M103.94,299.69H84.16a2.09,2.09,0,0,1-2.1-1.71l-4.49-23.05,1.87-.36,4.49,23.05a.21.21,0,0,0,.23.18h19.78a.21.21,0,0,0,.23-.18l4.45-23.05,1.87.36L106,298A2.07,2.07,0,0,1,103.94,299.69Z"/><path class="cls-7" d="M77.78,267.51H110.6c.56,0,1,.62,1,1.38v5c0,.76-.46,1.38-1,1.38H77.78c-.56,0-1-.62-1-1.38v-5C76.76,268.13,77.22,267.51,77.78,267.51Z"/><path class="cls-3" d="M110.6,275.77H77.78a1.74,1.74,0,0,1-1.54-1.89v-5A1.74,1.74,0,0,1,77.78,267H110.6a1.74,1.74,0,0,1,1.53,1.89v5A1.74,1.74,0,0,1,110.6,275.77ZM77.78,268c-.24,0-.5.37-.5.86v5c0,.49.26.86.5.86H110.6c.23,0,.5-.37.5-.86v-5c0-.49-.27-.86-.5-.86Z"/><path class="cls-7" d="M110.6,275.69H77.78a1.66,1.66,0,0,1-1.45-1.81v-5a1.66,1.66,0,0,1,1.45-1.81H110.6a1.66,1.66,0,0,1,1.45,1.81v5A1.66,1.66,0,0,1,110.6,275.69ZM77.78,268c-.28,0-.59.38-.59.94v5c0,.56.31.94.59.94H110.6c.28,0,.58-.38.58-.94v-5c0-.56-.3-.94-.58-.94Z"/><path class="cls-3" d="M110.6,276.2H77.78a2.17,2.17,0,0,1-2-2.32v-5a2.17,2.17,0,0,1,2-2.32H110.6a2.17,2.17,0,0,1,2,2.32v5A2.17,2.17,0,0,1,110.6,276.2Zm-32.77-7.74a.75.75,0,0,0-.12.43v5a.59.59,0,0,0,.14.44H110.6s.07-.17.07-.43v-5a.58.58,0,0,0-.15-.44Z"/><path class="cls-2" d="M81.35,247.92l1.62.21c.58.07.58-.84,0-.91L81.35,247c-.58-.07-.57.84,0,.91Z"/><path class="cls-2" d="M83.74,240.76v.81a.46.46,0,0,0,.91,0v-.81a.46.46,0,0,0-.91,0Z"/><path class="cls-2" d="M86.89,249.11l1.18-.66c.52-.29.06-1.07-.46-.79l-1.18.66a.46.46,0,0,0,.46.79Z"/><path class="cls-2" d="M82.21,259.59l1.43-1c.47-.33,0-1.12-.46-.78l-1.43,1c-.48.34,0,1.13.46.79Z"/><path class="cls-2" d="M78.79,251.76l1,.4c.55.21.78-.67.24-.88l-1-.4c-.55-.21-.79.67-.25.88Z"/><path class="cls-2" d="M85.41,256a.66.66,0,0,1,.48.28c.37.45,1-.2.64-.65a1.51,1.51,0,0,0-1.12-.54c-.59-.05-.59.87,0,.91Z"/><path class="cls-2" d="M87.41,260.27a3.1,3.1,0,0,0,.22,1.78c.23.54,1,.07.78-.46a2.06,2.06,0,0,1-.13-1.07c.09-.58-.78-.82-.87-.25Z"/><path class="cls-2" d="M92.17,260.44l.8.22a.46.46,0,0,0,.24-.88l-.8-.22a.46.46,0,0,0-.24.88Z"/><path class="cls-2" d="M95.07,251.49a1.52,1.52,0,0,0,.55,1.32c.44.38,1.09-.26.64-.64a.7.7,0,0,1-.27-.68c.05-.59-.86-.58-.92,0Z"/><path class="cls-2" d="M93.92,245a1.41,1.41,0,0,0-.24,1.16c.1.57,1,.33.88-.24a.5.5,0,0,1,.14-.46c.35-.48-.44-.93-.78-.46Z"/><path class="cls-2" d="M98.92,247.64v.81a.46.46,0,0,0,.91,0v-.81a.46.46,0,0,0-.91,0Z"/><path class="cls-2" d="M90.44,246.21l.61.41c.49.32.94-.47.46-.79l-.61-.41c-.49-.32-.94.47-.46.79Z"/><path class="cls-2" d="M92,238.65a1.17,1.17,0,0,1,.28.69c0,.58,1,.58.91,0a2.17,2.17,0,0,0-.55-1.33c-.38-.45-1,.2-.64.64Z"/><path class="cls-2" d="M94.26,235.9v1.21a.46.46,0,0,0,.92,0V235.9a.46.46,0,0,0-.92,0Z"/><path class="cls-2" d="M99.9,241.25l.39.41c.41.43,1-.22.65-.64l-.4-.42c-.4-.42-1.05.22-.64.65Z"/><path class="cls-2" d="M100.8,235.82l1.21.07c.59,0,.59-.88,0-.91l-1.21-.07c-.58,0-.58.88,0,.91Z"/><path class="cls-2" d="M102.09,228.53l.81.81a.46.46,0,0,0,.65-.65l-.81-.81a.46.46,0,0,0-.65.65Z"/><path class="cls-2" d="M105.6,226.18v1.42a.46.46,0,0,0,.91,0v-1.42a.46.46,0,0,0-.91,0Z"/><path class="cls-2" d="M107.25,234.7l.4-.6c.33-.5-.46-.95-.78-.46l-.4.6c-.33.5.46.95.78.46Z"/><path class="cls-2" d="M104.16,243.65l1-.39c.54-.21.31-1.1-.24-.88l-1,.39c-.54.21-.3,1.09.24.88Z"/><path class="cls-2" d="M108.2,242.38l1-.21c.57-.12.33-1-.24-.88l-1,.21c-.57.12-.33,1,.25.88Z"/><path class="cls-2" d="M105.6,246.63v.2a.46.46,0,0,0,.91,0v-.2a.46.46,0,0,0-.91,0Z"/><path class="cls-2" d="M97.78,260.58l.61-.41c.48-.32,0-1.11-.46-.79l-.61.41c-.49.32,0,1.11.46.79Z"/><path class="cls-2" d="M97.25,263.93a2.54,2.54,0,0,1,1.24-.66c.57-.13.33-1-.25-.88a3.49,3.49,0,0,0-1.64.9c-.42.41.22,1,.65.64Z"/><path class="cls-2" d="M93.49,264.48l.21.4c.27.53,1,.07.79-.46l-.21-.4c-.26-.52-1-.06-.79.46Z"/><path class="cls-2" d="M90,265.46a2.26,2.26,0,0,0,1.57.22c.57-.12.33-1-.24-.88a1.2,1.2,0,0,1-.87-.13c-.52-.27-1,.52-.46.79Z"/><path class="cls-2" d="M97.56,256.82l1.82-.23c.57-.07.58-1,0-.91l-1.82.23c-.58.07-.58,1,0,.91Z"/><path class="cls-9" d="M179.15,216.9l29.41-26.6c1.46-1.31-.7-3.45-2.14-2.14L177,214.75c-1.45,1.31.7,3.46,2.15,2.15Z"/><path class="cls-9" d="M212.39,230.46l29.42-26.59c1.45-1.32-.7-3.46-2.15-2.15l-29.41,26.59c-1.46,1.32.7,3.46,2.14,2.15Z"/><path class="cls-9" d="M176.27,240.51l61.65-60.12c1.4-1.37-.74-3.51-2.14-2.15l-61.66,60.12c-1.4,1.37.75,3.51,2.15,2.15Z"/><rect class="cls-5" x="269.18" y="53.57" width="1.32" height="84.84"/><path class="cls-5" d="M275.23,138.41a5.39,5.39,0,1,1-5.39-5.39A5.4,5.4,0,0,1,275.23,138.41Z"/><path class="cls-5" d="M269.92,156.48a4.45,4.45,0,0,1-4.43-4.83.72.72,0,0,1,1.43,0,3.41,3.41,0,0,0,.87,2.52,3.37,3.37,0,0,0,2.13.88,3.64,3.64,0,1,0,0-7.28.72.72,0,0,1-.72-.72v-4a.72.72,0,0,1,1.43,0v3.3a5.07,5.07,0,0,1-.71,10.09Z"/><path class="cls-5" d="M241.63,159.8a.66.66,0,0,1,0-1.31l29.15-4.29a.65.65,0,0,1,.75.55.66.66,0,0,1-.56.75l-29.15,4.3Z"/><path class="cls-5" d="M297.59,169.5a.73.73,0,0,1-.19-.07l-26.81-14a.67.67,0,0,1-.28-.9.66.66,0,0,1,.89-.28l26.81,14a.66.66,0,0,1,.28.89A.68.68,0,0,1,297.59,169.5Z"/><rect class="cls-4" x="221.35" y="164.19" width="86.21" height="55.47" rx="5.87" transform="translate(36.76 -42.44) rotate(9.86)"/><path class="cls-5" d="M296.38,226.43a8,8,0,0,1-1.38-.12L224.1,214a8.06,8.06,0,0,1-6.54-9.3l7.05-40.61a8.06,8.06,0,0,1,9.3-6.55l70.9,12.32a8.06,8.06,0,0,1,6.54,9.3l-7.05,40.61A8.06,8.06,0,0,1,296.38,226.43Zm-63.85-67.18a6.22,6.22,0,0,0-6.12,5.15L219.35,205a6.24,6.24,0,0,0,5.07,7.19l70.89,12.32a6.23,6.23,0,0,0,7.19-5.06l7.06-40.61a6.24,6.24,0,0,0-5.07-7.19L233.6,159.34A6.44,6.44,0,0,0,232.53,159.25Z"/><rect class="cls-7" x="225.12" y="168.49" width="78.67" height="46.89" rx="3.75" transform="translate(36.76 -42.44) rotate(9.86)"/><path class="cls-3" d="M295.5,222a6.09,6.09,0,0,1-.95-.08L226,210a5.48,5.48,0,0,1-4.45-6.32L228,166.43a5.46,5.46,0,0,1,6.32-4.45l68.53,11.91a5.47,5.47,0,0,1,4.45,6.32l-6.47,37.22A5.48,5.48,0,0,1,295.5,222Zm-.64-1.88a3.64,3.64,0,0,0,4.22-3l6.47-37.22a3.66,3.66,0,0,0-3-4.22l-68.53-11.9a3.65,3.65,0,0,0-4.22,3L223.36,204a3.6,3.6,0,0,0,.62,2.72,3.56,3.56,0,0,0,2.35,1.49Z"/><polygon class="cls-4" points="262.2 215.33 280.02 199 289.88 220.14 262.2 215.33"/><path class="cls-5" d="M290.92,220.94l-30-5.22L280.22,198Zm-27.39-6,25.31,4.39-9-19.33Z"/><polygon class="cls-4" points="226.98 209.21 258.56 180.26 276.04 217.74 226.98 209.21"/><path class="cls-5" d="M277.09,218.53l-51.44-8.93,33.11-30.35Zm-48.79-9.71,46.7,8.12-16.64-35.67Z"/><path class="cls-4" d="M296.12,185.75a4.42,4.42,0,1,1-3.59-5.11A4.43,4.43,0,0,1,296.12,185.75Z"/><path class="cls-5" d="M291.78,190a4.27,4.27,0,0,1-.87-.08,5,5,0,0,1-4.09-5.81,5,5,0,1,1,7.84,5A4.91,4.91,0,0,1,291.78,190Zm0-8.84a3.82,3.82,0,0,0-3.11,6,3.81,3.81,0,0,0,6.87-1.54h0a3.82,3.82,0,0,0-3.1-4.41A3.68,3.68,0,0,0,291.76,181.18Z"/><rect class="cls-7" x="258.25" y="50.71" width="66.21" height="7.29"/><path class="cls-5" d="M382,201.34H360V7h22Zm-19.8-2.17h17.63V9.18H362.19Z"/><path class="cls-5" d="M381.72,28.34H360.29V6.91h21.43Zm-19.23-2.21h17v-17h-17Z"/><rect class="cls-5" x="369.9" y="4.03" width="2.2" height="27.19" transform="translate(96.2 267.5) rotate(-45)"/><rect class="cls-5" x="357.41" y="16.52" width="27.19" height="2.2" transform="translate(96.2 267.5) rotate(-45)"/><path class="cls-5" d="M381.72,47.56H360.29V26.13h21.43Zm-19.23-2.2h17v-17h-17Z"/><rect class="cls-5" x="369.9" y="23.25" width="2.2" height="27.19" transform="translate(82.61 273.13) rotate(-45)"/><rect class="cls-5" x="357.41" y="35.74" width="27.19" height="2.2" transform="translate(82.61 273.13) rotate(-45)"/><path class="cls-5" d="M381.72,66.79H360.29V45.36h21.43Zm-19.23-2.21h17v-17h-17Z"/><rect class="cls-5" x="369.9" y="42.48" width="2.2" height="27.19" transform="translate(69.01 278.76) rotate(-45)"/><rect class="cls-5" x="357.41" y="54.97" width="27.19" height="2.2" transform="translate(69.02 278.77) rotate(-45)"/><path class="cls-5" d="M381.72,86H360.29V64.58h21.43Zm-19.23-2.2h17v-17h-17Z"/><rect class="cls-5" x="369.9" y="61.7" width="2.2" height="27.19" transform="translate(55.42 284.39) rotate(-45)"/><rect class="cls-5" x="357.41" y="74.2" width="27.19" height="2.2" transform="translate(55.42 284.39) rotate(-45)"/><path class="cls-5" d="M381.72,105.24H360.29V83.81h21.43ZM362.49,103h17V86h-17Z"/><rect class="cls-5" x="369.9" y="80.93" width="2.2" height="27.19" transform="translate(41.83 290.03) rotate(-45)"/><rect class="cls-5" x="357.41" y="93.42" width="27.19" height="2.2" transform="translate(41.83 290.04) rotate(-45)"/><path class="cls-5" d="M381.72,124.46H360.29V103h21.43Zm-19.23-2.2h17v-17h-17Z"/><rect class="cls-5" x="369.9" y="100.15" width="2.2" height="27.19" transform="translate(28.23 295.65) rotate(-45)"/><rect class="cls-5" x="357.41" y="112.65" width="27.19" height="2.2" transform="translate(28.24 295.67) rotate(-45)"/><path class="cls-5" d="M381.72,143.69H360.29V122.26h21.43Zm-19.23-2.2h17v-17h-17Z"/><rect class="cls-5" x="369.9" y="119.38" width="2.2" height="27.19" transform="translate(14.64 301.29) rotate(-45)"/><rect class="cls-5" x="357.41" y="131.87" width="27.19" height="2.2" transform="translate(14.64 301.3) rotate(-45)"/><path class="cls-5" d="M381.72,162.91H360.29V141.49h21.43Zm-19.23-2.2h17v-17h-17Z"/><rect class="cls-5" x="369.9" y="138.61" width="2.2" height="27.19" transform="translate(1.04 306.92) rotate(-45)"/><rect class="cls-5" x="357.41" y="151.1" width="27.19" height="2.2" transform="translate(1.05 306.93) rotate(-45)"/><path class="cls-5" d="M381.72,182.14H360.29V160.71h21.43Zm-19.23-2.2h17v-17h-17Z"/><rect class="cls-5" x="369.9" y="157.83" width="2.2" height="27.19" transform="translate(-12.55 312.55) rotate(-45)"/><rect class="cls-5" x="357.41" y="170.32" width="27.19" height="2.2" transform="translate(-12.55 312.56) rotate(-45)"/><path class="cls-5" d="M381.72,201.37H360.29V179.94h21.43Zm-19.23-2.21h17v-17h-17Z"/><rect class="cls-5" x="369.9" y="177.06" width="2.2" height="27.19" transform="translate(-26.15 318.18) rotate(-45)"/><rect class="cls-5" x="357.41" y="189.55" width="27.19" height="2.2" transform="translate(-26.17 318.11) rotate(-44.99)"/><path class="cls-5" d="M420,47.27H398.55V25.84H420Zm-19.22-2.2h17v-17h-17Z"/><rect class="cls-5" x="395.67" y="35.46" width="27.19" height="2.2" transform="translate(94.07 300.16) rotate(-45.01)"/><rect class="cls-5" x="408.16" y="22.96" width="2.2" height="27.19" transform="translate(94.02 300.1) rotate(-45)"/><path class="cls-5" d="M400.75,47.27H379.32V25.84h21.43Zm-19.23-2.2h17v-17h-17Z"/><rect class="cls-5" x="376.44" y="35.46" width="27.19" height="2.2" transform="translate(88.44 286.56) rotate(-45.01)"/><rect class="cls-5" x="388.93" y="22.96" width="2.2" height="27.19" transform="translate(88.39 286.5) rotate(-45)"/><path class="cls-5" d="M381.52,47.27H360.09V25.84h21.43Zm-19.22-2.2h17v-17h-17Z"/><path class="cls-5" d="M362.3,47.27H340.87V25.84H362.3Zm-19.23-2.2h17v-17h-17Z"/><rect class="cls-5" x="337.99" y="35.46" width="27.19" height="2.2" transform="translate(77.13 259.31) rotate(-45)"/><rect class="cls-5" x="350.48" y="22.96" width="2.2" height="27.19" transform="translate(77.13 259.31) rotate(-45)"/><path class="cls-5" d="M343.07,47.27H321.64V25.84h21.43Zm-19.22-2.2h17v-17h-17Z"/><rect class="cls-5" x="318.76" y="35.46" width="27.19" height="2.2" transform="translate(71.5 245.72) rotate(-45)"/><rect class="cls-5" x="331.26" y="22.96" width="2.2" height="27.19" transform="translate(71.5 245.72) rotate(-45)"/><path class="cls-5" d="M323.85,47.27H302.42V25.84h21.43Zm-19.23-2.2h17v-17h-17Z"/><path class="cls-5" d="M303.52,47.27H284.29a1.1,1.1,0,0,1-1-.68,1.11,1.11,0,0,1,.23-1.2l19.23-19.23,1.56,1.56L287,45.07h16.11L322,26.16l1.55,1.56L304.3,47A1.14,1.14,0,0,1,303.52,47.27Z"/><rect class="cls-5" x="312.03" y="22.96" width="2.2" height="27.19" transform="translate(65.86 232.12) rotate(-45)"/><path class="cls-5" d="M382,222.77H360V201.34h22Zm-19.76-2.2h17.5v-17h-17.5Z"/><polygon class="cls-5" points="380.11 222.45 360.35 203.22 361.95 201.66 381.71 220.89 380.11 222.45"/><polygon class="cls-5" points="361.95 222.45 360.35 220.89 380.11 201.66 381.71 203.22 361.95 222.45"/><path class="cls-5" d="M382,299.67H360V278.24h22Zm-19.76-2.2h17.5v-17h-17.5Z"/><polygon class="cls-5" points="380.11 299.35 360.35 280.12 361.95 278.57 381.71 297.79 380.11 299.35"/><polygon class="cls-5" points="361.95 299.35 360.35 297.79 380.11 278.57 381.71 280.12 361.95 299.35"/><path class="cls-5" d="M382,240.17H360V218.75h22ZM362.28,238h17.5V221h-17.5Z"/><polygon class="cls-5" points="380.11 239.85 360.35 220.63 361.95 219.07 381.71 238.29 380.11 239.85"/><polygon class="cls-5" points="361.95 239.85 360.35 238.29 380.11 219.07 381.71 220.63 361.95 239.85"/><path class="cls-5" d="M382,259.4H360V238h22Zm-19.76-2.2h17.5v-17h-17.5Z"/><polygon class="cls-5" points="380.11 259.08 360.35 239.85 361.95 238.29 381.71 257.52 380.11 259.08"/><polygon class="cls-5" points="361.95 259.08 360.35 257.52 380.11 238.29 381.71 239.85 361.95 259.08"/><path class="cls-5" d="M382,278.62H360V257.2h22Zm-19.76-2.2h17.5v-17h-17.5Z"/><polygon class="cls-5" points="380.11 278.3 360.35 259.08 361.95 257.52 381.71 276.75 380.11 278.3"/><polygon class="cls-5" points="361.95 278.3 360.35 276.75 380.11 257.52 381.71 259.08 361.95 278.3"/><path class="cls-3" d="M136.22,123.51a1.82,1.82,0,0,0,0-3.64,1.82,1.82,0,0,0,0,3.64Z"/><path class="cls-3" d="M333.81,85.45a1.82,1.82,0,0,0,0-3.64,1.82,1.82,0,0,0,0,3.64Z"/><path class="cls-3" d="M415.6,215.83h.81a1.82,1.82,0,1,0,0-3.64h-.81a1.82,1.82,0,0,0,0,3.64Z"/><path class="cls-3" d="M64.15,242.55a1.82,1.82,0,0,0,0-3.64,1.82,1.82,0,0,0,0,3.64Z"/><path class="cls-3" d="M238.26,67.64a1.83,1.83,0,0,0,0-3.65,1.83,1.83,0,0,0,0,3.65Z"/></svg>