<svg width="20" height="18" viewBox="0 0 20 18" fill="none" xmlns="http://www.w3.org/2000/svg">
<path d="M1.4 17.4L18.85 9.92C19.0304 9.84316 19.1842 9.71498 19.2923 9.5514C19.4004 9.38783 19.4581 9.19608 19.4581 9C19.4581 8.80393 19.4004 8.61218 19.2923 8.4486C19.1842 8.28503 19.0304 8.15685 18.85 8.08L1.4 0.600002C1.2489 0.534097 1.08377 0.506845 0.919509 0.520705C0.755246 0.534566 0.597018 0.589102 0.459098 0.679394C0.321179 0.769687 0.207908 0.892895 0.129505 1.0379C0.0511009 1.18291 0.010031 1.34516 0.00999999 1.51L0 6.12C0 6.62 0.37 7.05 0.87 7.11L15 9L0.87 10.88C0.37 10.95 0 11.38 0 11.88L0.00999999 16.49C0.00999999 17.2 0.74 17.69 1.4 17.4V17.4Z" fill="#2B2B2B"/>
</svg>
