<svg width="16" height="18" viewBox="0 0 16 18" fill="none" xmlns="http://www.w3.org/2000/svg">
<path d="M12.6 2.82C12.6 2.82 13.11 3.32 12.6 2.82C11.9164 2.03962 11.5397 1.03743 11.54 0H8.45V12.4C8.42617 13.071 8.14287 13.7066 7.65977 14.1729C7.17666 14.6393 6.53145 14.8999 5.86 14.9C4.44 14.9 3.26 13.74 3.26 12.3C3.26 10.58 4.92 9.29 6.63 9.82V6.66C3.18 6.2 0.160004 8.88 0.160004 12.3C0.160004 15.63 2.92 18 5.85 18C8.99 18 11.54 15.45 11.54 12.3V6.01C12.793 6.90985 14.2974 7.39265 15.84 7.39V4.3C15.84 4.3 13.96 4.39 12.6 2.82Z" fill="#FAFAFA"/>
</svg>
