<svg width="30" height="22" viewBox="0 0 30 22" fill="none" xmlns="http://www.w3.org/2000/svg">
<path d="M25.06 22H26.72C27.56 22 28.25 21.35 28.35 20.53L30 4.05H25V0H23.03V4.05H18.06L18.36 6.39C20.07 6.86 21.67 7.71 22.63 8.65C24.07 10.07 25.06 11.54 25.06 13.94V22ZM8 21V20H23.03V21C23.03 21.54 22.58 22 22 22H9C8.45 22 8 21.54 8 21ZM23.03 14C23.03 6 8 6 8 14H23.03ZM8 16H23V18H8V16Z" fill="black"/>
<path fill-rule="evenodd" clip-rule="evenodd" d="M13 6V7C12.7262 7 12.3858 7.03998 12 7.13454V7H10V7.5L10.4617 7.73083C9.48082 8.25027 8.41068 9.09183 7.45271 10.3936L7 10.62V11.0581C6.64036 11.6284 6.30297 12.2729 6 13V8.62L4 9.62V12.62C4.5 13.22 5.21 13.65 6 13.86V22H2L0 11H1V5H3V2H7V4H10V6H13ZM9 5H7V9.5L9 8.5V5ZM6 3H4V5H5V8L6 7.5V3ZM4 6H2V11H3V9L4 8.5V6Z" fill="black"/>
</svg>
