<svg width="20" height="20" viewBox="0 0 20 20" fill="none" xmlns="http://www.w3.org/2000/svg">
<path d="M17.05 2.91C16.1332 1.98392 15.0412 1.24967 13.8376 0.75005C12.6341 0.250433 11.3431 -0.00454115 10.04 -1.46553e-06C4.57999 -1.46553e-06 0.129988 4.45 0.129988 9.91C0.129988 11.66 0.589988 13.36 1.44999 14.86L0.0499878 20L5.29999 18.62C6.74999 19.41 8.37999 19.83 10.04 19.83C15.5 19.83 19.95 15.38 19.95 9.92C19.95 7.27 18.92 4.78 17.05 2.91V2.91ZM10.04 18.15C8.55999 18.15 7.10999 17.75 5.83999 17L5.53999 16.82L2.41999 17.64L3.24999 14.6L3.04999 14.29C2.22773 12.977 1.79113 11.4592 1.78999 9.91C1.78999 5.37 5.48999 1.67 10.03 1.67C12.23 1.67 14.3 2.53 15.85 4.09C16.6175 4.85396 17.2257 5.76266 17.6394 6.76342C18.0531 7.76419 18.264 8.83711 18.26 9.92C18.28 14.46 14.58 18.15 10.04 18.15V18.15ZM14.56 11.99C14.31 11.87 13.09 11.27 12.87 11.18C12.64 11.1 12.48 11.06 12.31 11.3C12.14 11.55 11.67 12.11 11.53 12.27C11.39 12.44 11.24 12.46 10.99 12.33C10.74 12.21 9.93999 11.94 8.99999 11.1C8.25999 10.44 7.76999 9.63 7.61999 9.38C7.47999 9.13 7.59999 9 7.72999 8.87C7.83999 8.76 7.97999 8.58 8.09999 8.44C8.21999 8.3 8.26999 8.19 8.34999 8.03C8.42999 7.86 8.38999 7.72 8.32999 7.6C8.26999 7.48 7.76999 6.26 7.56999 5.76C7.36999 5.28 7.15999 5.34 7.00999 5.33H6.52999C6.35999 5.33 6.09999 5.39 5.86999 5.64C5.64999 5.89 5.00999 6.49 5.00999 7.71C5.00999 8.93 5.89999 10.11 6.01999 10.27C6.13999 10.44 7.76999 12.94 10.25 14.01C10.84 14.27 11.3 14.42 11.66 14.53C12.25 14.72 12.79 14.69 13.22 14.63C13.7 14.56 14.69 14.03 14.89 13.45C15.1 12.87 15.1 12.38 15.03 12.27C14.96 12.16 14.81 12.11 14.56 11.99V11.99Z" fill="#FAFAFA"/>
</svg>
